<?xml version="1.0" encoding="utf-8"?>
<!-- Generator: Adobe Illustrator 24.0.3, SVG Export Plug-In . SVG Version: 6.00 Build 0)  -->
<svg version="1.1" id="Layer_1" xmlns="http://www.w3.org/2000/svg" xmlns:xlink="http://www.w3.org/1999/xlink" x="0px" y="0px"
	 viewBox="0 0 100.2 48" style="enable-background:new 0 0 100.2 48;" xml:space="preserve">
<style type="text/css">
	.st0{fill:#0ACF83;}
	.st1{fill:#A259FF;}
	.st2{fill:#F24E1E;}
	.st3{fill:#FF7262;}
	.st4{fill:#1ABCFE;}
</style>
<symbol  id="A" viewBox="-49.9 -23.8 99.9 47.7">
	<g>
		<path class="st0" d="M-42,23.8c4.4,0,7.9-3.6,7.9-7.9V7.9H-42c-4.4,0-7.9,3.6-7.9,7.9S-46.4,23.8-42,23.8z"/>
		<path class="st1" d="M-49.9,0c0-4.4,3.6-7.9,7.9-7.9h7.9V8H-42C-46.4,7.9-49.9,4.4-49.9,0L-49.9,0z"/>
		<path class="st2" d="M-49.9-15.9c0-4.4,3.6-7.9,7.9-7.9h7.9v15.9H-42C-46.4-7.9-49.9-11.5-49.9-15.9L-49.9-15.9z"/>
		<path class="st3" d="M-34.1-23.8h7.9c4.4,0,7.9,3.6,7.9,7.9s-3.6,7.9-7.9,7.9h-7.9L-34.1-23.8z"/>
		<path class="st4" d="M-18.1,0c0,4.4-3.6,7.9-7.9,7.9c-4.4,0-8-3.6-8-7.9c0-4.4,3.6-7.9,7.9-7.9C-21.8-7.9-18.2-4.4-18.1,0L-18.1,0
			z"/>
		<path d="M-9.5-10.7V6h2.1V-2h5.2V-4h-5.2v-4.6h6.7v-2.1L-9.5-10.7z M3.2-7.3c0.8,0,1.4-0.6,1.4-1.4v0C4.6-9.5,4-10,3.2-10
			S1.8-9.4,1.8-8.6c0,0.4,0.2,0.7,0.4,1C2.5-7.3,2.9-7.2,3.2-7.3L3.2-7.3z M2.2-5.2V6h2.1V-5.2H2.2L2.2-5.2z M12.3-5.5
			C9.4-5.5,7.4-3,7.4-0.2S9.4,5,12.3,5c1.2,0,2.3-0.5,3.2-1.3v1.5c0,0.9-0.4,1.7-1,2.4c-0.6,0.6-1.5,1-2.4,1c-0.7,0-1.3-0.2-1.9-0.6
			L9.1,9.8c2.6,1.6,6,0.9,7.6-1.7c0.6-0.9,0.9-1.9,0.9-3V-5.2h-2.1v1C14.6-5.1,13.5-5.5,12.3-5.5L12.3-5.5z M9.6-0.2
			C9.5-1.4,10-2.4,11-3c0.9-0.6,2.1-0.6,3.1,0c0.9,0.6,1.5,1.6,1.4,2.8C15.5,0.9,15,1.9,14,2.5c-0.9,0.6-2.1,0.6-3.1,0
			C10,1.9,9.5,0.9,9.6-0.2z M25.3-3.3C24-3.3,23-2.3,23-1v7.1h-2.1V-5.1H23v0.9c0.7-0.9,1.7-1.4,2.8-1.4c1.4,0,2.6,0.7,3.3,1.9
			c0.8-1.2,2-1.9,3.3-1.9c2.4,0,4,2,4,4.4V6h-2.1v-7.1c0.1-0.9-0.3-1.8-1-2.3c-1.1-0.7-2.5-0.4-3.2,0.7c-0.3,0.5-0.4,1-0.3,1.6V6
			h-2.1v-7.1C27.6-2.4,26.5-3.4,25.3-3.3L25.3-3.3z M47.8-3.9c-1-1-2.3-1.6-3.8-1.6c-3.2,0-5.4,2.7-5.4,5.8s2.2,5.8,5.4,5.8
			c1.4,0,2.8-0.6,3.8-1.6v1.3h2.1V-5.3h-2.1V-3.9z M40.7,0.4c-0.1-1.3,0.5-2.6,1.7-3.3s2.5-0.7,3.7,0c1.1,0.7,1.8,2,1.7,3.3
			c0.1,1.3-0.5,2.6-1.7,3.3s-2.5,0.7-3.7,0C41.3,3,40.6,1.8,40.7,0.4z"/>
	</g>
</symbol>
<use xlink:href="#A"  width="99.9" height="47.7" x="-49.9" y="-23.8" transform="matrix(1 0 0 1 49.9295 23.833)" style="overflow:visible;"/>
</svg>
