<?xml version="1.0" encoding="utf-8"?>
<!-- Generator: Adobe Illustrator 24.0.3, SVG Export Plug-In . SVG Version: 6.00 Build 0)  -->
<svg version="1.1" id="Layer_1" xmlns="http://www.w3.org/2000/svg" xmlns:xlink="http://www.w3.org/1999/xlink" x="0px" y="0px"
	 viewBox="0 0 128 128" style="enable-background:new 0 0 128 128;" xml:space="preserve">
<style type="text/css">
	.st0{fill:#CFD8DC;}
	.st1{fill:#B0BEC5;}
</style>
<path class="st0" d="M93.4,0H34.7C33.2,0,32,1.2,32,2.7V32H2.7C1.2,32,0,33.2,0,34.7v90.7c0,1.5,1.2,2.7,2.7,2.7h90.7
	c1.5,0,2.7-1.2,2.7-2.7V2.7C96,1.2,94.8,0,93.4,0z"/>
<path class="st1" d="M35.7,0.2c-1-0.4-2.1-0.2-2.9,0.6l-32,32c-0.8,0.8-1,1.9-0.6,2.9c0.4,1,1.4,1.6,2.5,1.6h32
	c1.5,0,2.7-1.2,2.7-2.7v-32C37.4,1.6,36.7,0.6,35.7,0.2z"/>
<path d="M90.7,101.3c-5.7,0-10.2-3.2-10.7-7.4c-0.1-1.5,0.9-2.8,2.4-2.9c1.4-0.1,2.8,0.9,2.9,2.4c0.1,1.1,2.2,2.6,5.3,2.6
	c3.2,0,5.3-1.6,5.3-2.7c0-1.2-3.4-2.4-5.7-2.7c-1.1-0.1-10.3-1.5-10.3-8c0-4.5,4.7-8,10.7-8c5.7,0,10.2,3.2,10.7,7.4
	c0.1,1.5-0.9,2.8-2.4,2.9c-1.4,0.1-2.8-0.9-2.9-2.4c-0.1-1.1-2.2-2.6-5.3-2.6c-3.2,0-5.3,1.6-5.3,2.7c0,1.2,3.4,2.4,5.7,2.7
	c1.1,0.1,10.3,1.5,10.3,8C101.4,97.8,96.7,101.3,90.7,101.3z"/>
<path d="M109.4,101.3c-0.6,0-1.1-0.2-1.6-0.5c-1.2-0.9-1.4-2.6-0.5-3.7l16-21.3c0.9-1.2,2.6-1.4,3.7-0.5c1.2,0.9,1.4,2.6,0.5,3.7
	l-16,21.3C111,101,110.2,101.3,109.4,101.3z"/>
<path d="M125.4,101.3c-0.8,0-1.6-0.4-2.1-1.1l-16-21.3c-0.9-1.2-0.6-2.8,0.5-3.7c1.2-0.9,2.8-0.6,3.7,0.5l16,21.3
	c0.9,1.2,0.6,2.8-0.5,3.7C126.5,101.2,125.9,101.3,125.4,101.3z"/>
<path d="M66.7,101.3c-4.4,0-8-3.6-8-8c0-1.5,1.2-2.7,2.7-2.7c1.5,0,2.7,1.2,2.7,2.7c0,1.5,1.2,2.7,2.7,2.7c1.5,0,2.7-1.2,2.7-2.7
	v-16c0-1.5,1.2-2.7,2.7-2.7s2.7,1.2,2.7,2.7v16C74.7,97.8,71.1,101.3,66.7,101.3z"/>
<path d="M93.4,128H2.7c-1.5,0-2.7-1.2-2.7-2.7V34.7c0-0.7,0.3-1.4,0.8-1.9l32-32C33.3,0.3,34,0,34.7,0h58.7C94.8,0,96,1.2,96,2.7v64
	c0,1.5-1.2,2.7-2.7,2.7c-1.5,0-2.7-1.2-2.7-2.7V5.3H35.8L5.4,35.8v86.9h85.3v-13.3c0-1.5,1.2-2.7,2.7-2.7c1.5,0,2.7,1.2,2.7,2.7v16
	C96,126.8,94.8,128,93.4,128z"/>
<path d="M34.7,37.3h-32c-1.5,0-2.7-1.2-2.7-2.7C0,33.2,1.2,32,2.7,32H32V2.7C32,1.2,33.2,0,34.7,0c1.5,0,2.7,1.2,2.7,2.7v32
	C37.4,36.1,36.2,37.3,34.7,37.3z"/>
</svg>
