<?xml version="1.0" encoding="utf-8"?>
<!-- Generator: Adobe Illustrator 24.0.3, SVG Export Plug-In . SVG Version: 6.00 Build 0)  -->
<svg version="1.1" id="Layer_1" xmlns="http://www.w3.org/2000/svg" xmlns:xlink="http://www.w3.org/1999/xlink" x="0px" y="0px"
	 viewBox="0 0 742 742" style="enable-background:new 0 0 742 742;" xml:space="preserve">
<style type="text/css">
	.st0{fill:#FEFEFE;}
	.st1{fill:#F05A24;}
	.st2{fill:#FEFEFD;}
	.st3{fill:#F05C27;}
</style>
<g>
	<g>
		<path class="st0" d="M741.9,371c0,122.1,0,244.3,0.1,366.4c0,3.7-0.8,4.6-4.6,4.6c-244.3-0.1-488.5-0.1-732.8,0
			c-3.7,0-4.6-0.8-4.6-4.6C0.1,493.1,0.1,248.9,0,4.6C0,0.8,0.8,0,4.6,0c244.3,0.1,488.5,0.1,732.8,0c3.7,0,4.6,0.8,4.6,4.6
			C741.9,126.7,741.9,248.9,741.9,371z"/>
		<path class="st1" d="M370.7,56.3c173.6,0,315.1,140.7,314.7,314.1c-0.3,182.2-149.2,316.2-317.3,315
			C197.4,684,56.6,543.2,56.5,371.5C56.4,197.6,197.3,56.2,370.7,56.3z"/>
		<path class="st0" d="M469.5,264.2c-11.1,10.6-22.4,20.9-33.2,31.7c-30.2,30.1-60.2,60.5-90.1,90.8c-2.3,2.4-3.7,2.9-6.3,0.3
			c-7.6-7.7-15.3-15.3-23.1-22.8c-1.7-1.7-2.2-2.8-0.5-4.9c24.5-29.6,50.7-57.4,82-80c15.6-11.2,32.2-19.3,51.9-19.6
			c6.2-0.1,12.3,0.3,18.1,2.7C468.7,262.9,469.1,263.5,469.5,264.2z"/>
		<path class="st0" d="M362.6,419c2.6-0.3,3.8,2.4,5.5,4c7.3,7,7.3,7-0.4,13.6c-25.1,21.7-49.7,43.9-77.2,62.6
			c-10.9,7.4-22,14.5-33.7,20.5c-4.1,2.1-5.5,4.2-4.2,8.9c2.6,9.3,4.4,18.8,6.6,28.2c0.4,1.6,1.2,3.3-0.7,4.4
			c-2,1.2-3.1-0.5-4.2-1.6c-10.2-10-20.3-20.2-30.7-30.1c-3.4-3.2-3.7-4.9-0.2-8.4c26.8-27.3,53.7-54.6,79.9-82.6
			c7.5-8.1,15.5-12.5,26.3-13.7C340.6,423.6,351.3,421,362.6,419z"/>
		<path class="st0" d="M476.9,282.5c0.2,6.1-2,12-5.6,17.7c-8.6,13.4-20.4,23.7-31.3,34.9c-23.8,24.5-47.9,48.6-71.8,73.1
			c-2.7,2.7-4.2,3.2-6.9,0.1c-3.6-4.1-7.6-8-11.7-11.6c-2.7-2.4-2-3.6,0.2-5.8c31.2-31.5,62.3-63.1,93.4-94.6
			c8.8-8.9,17.7-17.7,26.2-26.8c3.1-3.3,4.3-2.3,5.6,1.2C476.2,274.3,477.1,278,476.9,282.5z"/>
		<path class="st0" d="M529.6,274.3c-26.7,12-58.5-4.5-65.4-33.2c-4.5-18.9,3-38.7,19-50.1c15.7-11.3,36.7-11.9,53.2-1.9
			c3.7,2.2,4.1,3.5,0.7,6.6c-13.3,11.9-26.2,24.1-39.4,36.1c-3.4,3-3.6,5.1-0.4,8.5C508.1,251.3,518.6,262.6,529.6,274.3z"/>
		<path class="st0" d="M474.5,306.1c1.2,2.2-0.1,3.8-0.6,5.4c-7.7,23.1-21.4,42.7-36.5,61.4c-15.8,19.5-33.8,36.8-52.8,53.1
			c-2.2,1.9-3.8,2.3-5.6-0.2c-0.8-1.1-1.9-1.9-2.8-2.8c-7.5-7.5-7.5-7.5,0.2-15.3c29.1-29.5,58.2-59,87.2-88.6
			C467.4,315,470.8,310.5,474.5,306.1z"/>
		<path class="st0" d="M559.3,232.5c-0.3,14.3-7.3,27.6-20.9,37.5c-2.3,1.7-3.7,1.6-5.8-0.6c-9.4-10.2-18.9-20.2-28.5-30.1
			c-2.2-2.2-2.5-3.5,0.1-5.9c12.9-11.6,25.6-23.4,38.2-35.2c2.1-1.9,3.2-2,5.1,0.3C555.1,207.6,559.2,218,559.3,232.5z"/>
		<path class="st0" d="M247.3,562.1c-19.1,0-38.2,0-57.3,0c-1.5,0-3.2,0.2-3.8-1.6c-0.6-1.7,0.7-2.7,1.8-3.8
			c8.4-8.3,16.7-16.6,25.1-25c1.3-1.3,2.3-2.9,4.4-0.8C227.3,541.3,237.2,551.5,247.3,562.1z"/>
		<path class="st0" d="M337.3,392.3c-17.8,3.9-34.6,7.5-51.4,11.2c-1.4,0.3-2.7,0.6-3.6-0.8c-1.1-1.6-0.1-2.8,0.9-4
			c8.7-10.2,17.5-20.5,26.1-30.7c1.2-1.5,2.1-1.7,3.5-0.2C320.7,375.7,328.7,383.7,337.3,392.3z"/>
		<path class="st2" d="M358.8,414c-9.8,1.7-19.6,3.4-29.4,5.1c-1.3,0.2-2.7,0.4-3.4-1.2c-0.5-1.2,0-2.2,0.8-3.2
			c5-5.1,10-10.3,14.9-15.4c1.2-1.2,2.1-1.3,3.3,0C349.4,404.1,353.9,408.8,358.8,414z"/>
		<path class="st3" d="M549.2,233.4c0.1,4.1-0.7,7.9-2.9,11.4c-1,1.6-2.4,2.4-4.2,1.3c-1.6-1-1.5-2.5-0.7-3.9
			c3-5.3,2.9-10.8,1.1-16.3c-0.6-2-0.7-3.8,1.5-4.5c2.3-0.8,3.2,1,3.9,2.8C548.9,227.2,549.2,230.3,549.2,233.4z"/>
	</g>
</g>
</svg>
