<?xml version="1.0" encoding="utf-8"?>
<!-- Generator: Adobe Illustrator 24.0.3, SVG Export Plug-In . SVG Version: 6.00 Build 0)  -->
<svg version="1.1" id="Layer_1" xmlns="http://www.w3.org/2000/svg" xmlns:xlink="http://www.w3.org/1999/xlink" x="0px" y="0px"
	 viewBox="0 0 3031.5 2883.1" style="enable-background:new 0 0 3031.5 2883.1;" xml:space="preserve">
<style type="text/css">
	.st0{fill:#62DAFB;}
	.st1{fill:#424242;}
	.st2{font-family:'AndaleMono';}
	.st3{font-size:307px;}
	.st4{fill:#6B6B6B;}
</style>
<path class="st0" d="M2308,2035c-53.1,17.4-110.3,22.7-165.8,32.4c-15.1,2.6-31,0.3-46.4,2.4c-118.5,16.5-163.2,63.9-179.9,190
	c-8.9,67.1-26.6,131-65.1,188.1c-65.1,96.5-191.6,140.2-299.9,102.6c-115.9-40.4-186-146-176.7-265.9
	c8.5-108.1,93.8-203.5,213.6-231.2c56.1-13,114.3-18.1,171.9-23.4c107.5-9.8,154.9-56.9,172.8-162.6c10.3-60.8,1.1-118.1-12.4-175.5
	c-20.5-87.3-84.3-128.1-191.5-135.9c-58.4-4.3-118-12.7-173.9-29.6c-117.8-35.4-186.4-137.6-181-257.6c4.7-105,90.3-207.4,193-230.8
	c121.7-27.9,242.9,20.9,294.7,129.3c27.2,56.9,42.1,121.3,52.7,184c19.1,112.4,63.7,156,175.8,168.2c72.5,7.9,146.4,16.9,215.6,38.5
	c105,32.8,168.1,130.8,168.1,239.5C2473.6,1903.8,2408.6,2002.3,2308,2035L2308,2035z"/>
<path class="st1" d="M1071.5,2052.3c-140.8,0-255.6-114.9-255.6-255.6S930.7,1541,1071.5,1541s255.6,114.9,255.6,255.6
	S1212.2,2052.3,1071.5,2052.3L1071.5,2052.3z M466.3,2563.7c-140.7-0.3-255.2-115.6-254.7-256.6c0.3-140.6,115.6-255.1,256.4-254.7
	c140.7,0.3,255.2,115.6,254.7,256.6C722.5,2449.5,607.2,2564,466.3,2563.7L466.3,2563.7z M2777.8,2563.7
	c-141,0.8-256.8-113.3-257.6-253.7c-0.8-141,113.3-256.8,253.7-257.6c141-0.8,256.8,113.3,257.6,253.7
	C3032.3,2447.1,2918.3,2562.9,2777.8,2563.7z"/>
<text transform="matrix(1.2268 0 0 1 17.3232 1128.4066)" class="st0 st2 st3">React</text>
<text transform="matrix(1.2268 0 0 1 813.2178 1128.4066)" class="st2 st3"> </text>
<text transform="matrix(1.2268 0 0 1 17.3232 1466.8295)" class="st4 st2 st3">Router</text>
</svg>
