<svg id="Layer_1" data-name="Layer 1" xmlns="http://www.w3.org/2000/svg" viewBox="0 0 344 344"><defs><style>.cls-1{fill:#fff;}.cls-2{fill:#4c66b0;}.cls-3{fill:#8357a4;}.cls-4{fill:#476bb3;}.cls-5{fill:#5f5faa;}.cls-6{fill:#9055a2;}.cls-7{fill:#695ca8;}.cls-8{fill:#8257a4;}.cls-9{fill:#8557a3;}.cls-10{fill:#8657a3;}.cls-11{fill:#645ea9;}.cls-12{fill:#655ea9;}.cls-13{fill:#486ab2;}.cls-14{fill:#5562ad;}.cls-15{fill:#5662ac;}.cls-16{fill:#5a60ab;}.cls-17{fill:#4f65af;}.cls-18{fill:#5b60ab;}.cls-19{fill:#4969b2;}.cls-20{fill:#6f5ba7;}.cls-21{fill:#8557a4;}.cls-22{fill:#7859a5;}.cls-23{fill:#6d5ca7;}.cls-24{fill:#5263ae;}.cls-25{fill:#8757a4;}.cls-26{fill:#8358a4;}.cls-27{fill:#8a57a4;}.cls-28{fill:#7b59a5;}.cls-29{fill:#7f58a5;}.cls-30{fill:#8a57a3;}.cls-31{fill:#8258a4;}.cls-32{fill:#755aa6;}.cls-33{fill:#7e59a5;}.cls-34{fill:#715ba7;}.cls-35{fill:#8d57a3;}.cls-36{fill:#8e57a3;}.cls-37{fill:#725ba7;}.cls-38{fill:#cfaed3;}.cls-39{fill:#7ec2eb;}.cls-40{fill:#83c1ea;}.cls-41{fill:#ccafd4;}.cls-42{fill:#89c0e8;}.cls-43{fill:#c5b1d6;}.cls-44{fill:#8fbfe6;}.cls-45{fill:#96bde4;}.cls-46{fill:#c1b2d7;}.cls-47{fill:#93bee5;}.cls-48{fill:#c8b0d5;}.cls-49{fill:#c0b2d7;}.cls-50{fill:#bcb4d9;}.cls-51{fill:#9ebbe2;}.cls-52{fill:#8ac0e8;}.cls-53{fill:#9dbbe2;}.cls-54{fill:#86c1e9;}.cls-55{fill:#b7b5db;}.cls-56{fill:#b7b5da;}.cls-57{fill:#afb7dd;}.cls-58{fill:#98bde4;}.cls-59{fill:#a1bae1;}.cls-60{fill:#8fbfe7;}.cls-61{fill:#b5b7dc;}.cls-62{fill:#aeb7dd;}.cls-63{fill:#b3b7dc;}.cls-64{fill:#a3bae1;}.cls-65{fill:#aab8df;}.cls-66{fill:#a7bae0;}.cls-67{fill:#a6bae0;}.cls-68{fill:#abb8de;}.cls-69{fill:#665da8;}.cls-70{fill:#655da9;}.cls-71{fill:#5d5faa;}.cls-72{fill:#5e5faa;}.cls-73{fill:#635da9;}.cls-74{fill:#6160ab;}.cls-75{fill:#625da9;}.cls-76{fill:#685ca8;}.cls-77{fill:#6a5ba8;}.cls-78{fill:#625eaa;}.cls-79{fill:#6b5ca8;}.cls-80{fill:#6c5ca8;}.cls-81{fill:#6c5ba7;}.cls-82{fill:#6360ab;}.cls-83{fill:#fefdfe;}</style></defs><title>rest-api-icon</title><path class="cls-1" d="M.1,343.9Q.1,174,0,4.09C0,.67.67,0,4.09,0Q172,.18,339.91,0c3.42,0,4.09.67,4.09,4.09q-.18,167.91,0,335.82c0,3.42-.67,4.09-4.09,4.09Q170,343.82.1,343.9Z" transform="translate(0)"/><path class="cls-2" d="M61.07,80.05A50,50,0,0,1,80.46,60.67c5.92-3.25,12.29-2.29,18,1.49,4.55,3,9,6.25,13.39,9.51a9,9,0,0,0,10.21.89c3.86-1.91,7.75-4,11.86-5.08,5.23-1.44,8.95-3.92,10.17-9.42,3.32-2.1,6.67-1.92,10.05-.16,2,5.69-1.1,13.79-7.6,17.06a202,202,0,0,1-24.3,10.16c-5.68,2-11.18.34-16.11-2.9-4-2.64-7.86-5.57-11.79-8.34-5-3.54-7.75-3.17-12.46.57-2.92,2.33-4.76,6.06-8.78,7C69.22,79.6,65,81.06,61.07,80.05Z" transform="translate(0)"/><path class="cls-2" d="M200.06,59.06a9.17,9.17,0,0,0,6.29,7,118.52,118.52,0,0,1,16.08,6.74,8.27,8.27,0,0,0,9.36-.8c4.31-3.13,8.6-6.29,13-9.27,8.32-5.62,16.7-5.12,24.22,1.58,4.7,4.18,9.58,8.26,12.87,13.78-1,2.3-3.07,2.17-5,2.26a19.74,19.74,0,0,0-5.76,1.06c-4.08-.51-5.71-4.29-8.47-6.51-5.43-4.36-7.28-4.67-13.17-.67-4,2.7-7.77,5.7-11.87,8.23-6.61,4.09-13.43,4.54-20.4,1.12-4.94-2.42-10-4.44-15.16-6.35-6.29-2.34-10.77-6.5-12.53-13.16-.54-2.08-1.24-4.27,1.18-5.8C193.92,57.43,197.1,57,200.06,59.06Z" transform="translate(0)"/><path class="cls-3" d="M236.79,275.31a6,6,0,0,1-1.74-.82c-4.86-4.87-10-5.48-15.91-1.73a20.6,20.6,0,0,1-8.17,3.18c-4.35,1.25-8.75.36-13.13.26a3.38,3.38,0,0,1-3.48-2.23c-.28-3.33,2.13-4.78,4.56-5.81,7-3,14.17-5.7,21.14-8.86a15.49,15.49,0,0,1,11.72-.36c7.49,2.68,13.2,7.88,18.43,13.66-1.17,2.91-3.79,2.58-6.16,2.75S239.21,275.27,236.79,275.31Z" transform="translate(0)"/><path class="cls-4" d="M148.05,38.08c2.68-6.73,8.08-10.1,14.89-10.73a105.78,105.78,0,0,1,18.41,0,17.09,17.09,0,0,1,15.59,13.74c-3,2-6.5,1.55-9.84,1.86-9.33-5.45-19-4.22-28.75-1.47C155.12,39.7,150.72,41.53,148.05,38.08Z" transform="translate(0)"/><path class="cls-5" d="M28,160.66c1.53-8,7.23-13.06,15.93-14.69,6.62-1.24,13.5-1.29,19.79-4.13,3.7-.51,7.39-.68,11,.58,1.85,1.73.59,3.33-.3,4.85-1.92,3.29-4.94,5.25-8.41,6.59a43,43,0,0,1-10.6,2.43c-6.8.78-13.36,2-18.11,7.64a13.68,13.68,0,0,1-6.72.29C28.64,163.86,27,163.15,28,160.66Z" transform="translate(0)"/><path class="cls-5" d="M280.27,141.86c6.14,2.83,12.88,2.89,19.36,4.06,8.7,1.57,14.48,6,16.42,14.88-2.19,4.54-6.11,2.14-9.38,2.35-5.75-6-13.63-5.86-21-7.12-5.47-.93-10.67-2.51-14.58-6.69-1.72-1.84-4-3.81-1.88-6.83C272.82,141.1,276.53,141.32,280.27,141.86Z" transform="translate(0)"/><path class="cls-6" d="M196.39,305c-2.71,7.36-8.39,11-15.83,11.68a91.13,91.13,0,0,1-17.4,0c-7.81-.8-13.58-4.88-16-12.78,3-2.3,6.91-.85,10.1-2.39,9.15,4.72,18.6,3.47,28.09,1.43C189,303.68,193.06,302.48,196.39,305Z" transform="translate(0)"/><path class="cls-7" d="M315.72,185c-2.35,7.69-7.91,11.59-15.51,13C294.17,199,288.09,200,282,201c-4.23.56-8.49,1.44-12.37-1.3.34-4.87,4.61-9,11.14-10.66a60.29,60.29,0,0,1,6.81-1.21c6.35-.87,12.63-1.93,18.28-5.24C309,184.2,312.79,182.74,315.72,185Z" transform="translate(0)"/><path class="cls-8" d="M128,273.94a8.84,8.84,0,0,1-2.31-.77c-5.78-3.91-11.34-3.84-16.7.77-4.74.58-9.52,1.53-13.92-1.37-1-2.25.67-3.37,2-4.49a67.47,67.47,0,0,1,11-7.55A18.63,18.63,0,0,1,124,259.27c6.65,2.5,12.73,6.31,19.4,8.81a3.11,3.11,0,0,1,2.12,2.55c-.62,3-3.1,2.63-5.13,2.67C136.26,273.38,132.15,273.51,128,273.94Z" transform="translate(0)"/><path class="cls-7" d="M58.91,200.06a104.25,104.25,0,0,1-17.59-2.78,17,17,0,0,1-13-12.29c2.92-2.16,7-.68,9.82-3.27,6.53,5.47,14.83,5,22.47,6.74,5.48,1.26,10.45,3.3,12.75,9.07-1.31,2.64-3.82,2.64-6.24,2.82C64.35,200.56,61.64,200.05,58.91,200.06Z" transform="translate(0)"/><path class="cls-9" d="M94.61,271.74c4.54,2.48,9.82.1,14.42,2.2-3.73,2.73-7.32,5.7-11.22,8.15a17.83,17.83,0,0,1-21.73-1.45c-3.55-2.95-7.14-5.92-9.84-9.76,1-2.34,3.14-2.1,5.07-2.21a19.35,19.35,0,0,0,6.31-1.06,3.18,3.18,0,0,1,3.14,1.06c3.47,4.11,7.61,4.81,12.44,2.79A1.8,1.8,0,0,1,94.61,271.74Z" transform="translate(0)"/><path class="cls-10" d="M236.79,275.31c2.09-2.52,4.93-1,7.41-1.33,2.06-.27,4.39.53,5.75-1.85a25.15,25.15,0,0,0,13.32-1.48,21.35,21.35,0,0,0,6.83,1.07c1.83.12,3.65.4,4.74,2.2a34.55,34.55,0,0,1-7.09,6.89,17.87,17.87,0,0,1-21.32,1.46C243.06,280.2,240,277.65,236.79,275.31Z" transform="translate(0)"/><path class="cls-11" d="M315.72,185c-2.14,0-4.28,0-6.42,0-1.8.05-3.31-.23-3.58-2.41a34,34,0,0,1,0-20.52c3.4-.72,7.14,1.26,10.33-1.27C317.46,168.88,317.68,177,315.72,185Z" transform="translate(0)"/><path class="cls-12" d="M38.09,182c-.23,2.9-2.27,3.09-4.5,3-1.77,0-3.53,0-5.3,0-2.1-8.08-1.65-16.2-.33-24.33.38,3,2.69,2.26,4.54,2.33s3.61,0,5.41,0a2.53,2.53,0,0,1,.86,2.21,62,62,0,0,0,0,14.47A2.92,2.92,0,0,1,38.09,182Z" transform="translate(0)"/><path class="cls-13" d="M148.05,38.08c2.18.5,4.31,1.24,6.63,1,1.43-.13,3-.22,3.32,1.85.81,5.81-1,11.29-2.15,16.86a1.79,1.79,0,0,1-1.76,1.44c-3.11-2.44-6.72-.64-10.05-1.19C144.85,51.3,145.14,44.43,148.05,38.08Z" transform="translate(0)"/><path class="cls-14" d="M72,123.88c4.33-6.64.12-11.61-3.28-16.73,3.66-2.74,7.73-1.49,11.7-1.23,6.86,4.39,7.72,15.38,1.6,20.56a22.8,22.8,0,0,1-6.7-.18C73.86,126.12,71.87,126.33,72,123.88Z" transform="translate(0)"/><path class="cls-15" d="M273.89,108.86c-4.65,5.5-4.39,11.24-.84,17.14-3.38,2.37-7.23,1.32-10.91,1.48-5.83-5.33-5.4-16.29.83-21.18C266.64,107,271,105,273.89,108.86Z" transform="translate(0)"/><path class="cls-16" d="M72,123.88c2.94,2.63,7-.17,10,2.14,1.63,3.78-1.38,6.44-2.52,9.45-1,2.66-.84,6.26-4.33,7.57-3.83-.37-7.83.86-11.48-1.2C67.63,136.4,68,129.31,72,123.88Z" transform="translate(0)"/><path class="cls-17" d="M271,80.89c.42-2.41,2.33-1.74,3.83-1.83,2.39-.13,4.87.4,7.08-1,4.24,6.4,4.43,12.85.24,19.35-3.48-.24-7.17.72-10.21-1.9-.19-.26-.5-.61-.43-.86C273,90,272.23,85.44,271,80.89Z" transform="translate(0)"/><path class="cls-18" d="M262.18,127c3.47-1.94,7.26-.57,10.87-1,3.4,4.83,3.61,11.12,7.22,15.86-3.65,2-7.64.8-11.46,1.19C264.6,138.54,262.73,133.05,262.18,127Z" transform="translate(0)"/><path class="cls-19" d="M186.65,42.18c3.33-1.31,6.81-1.15,10.29-1.11,1.32,6,3.2,11.8,3.12,18H189.94C186.13,54,185.92,48.17,186.65,42.18Z" transform="translate(0)"/><path class="cls-20" d="M269.91,198.88c3.73,2.49,8.34,0,12.12,2.14-3.65,2.36-4.37,6.41-5.83,10-.67,1.67-1.51,3.27-2.27,4.9-3.52,2.83-7.22,1.29-10.88.42a2.88,2.88,0,0,1-.45-3.22c1.49-4.17,3.1-8.29,4.77-12.39C267.79,199.74,268.48,198.74,269.91,198.88Z" transform="translate(0)"/><path class="cls-17" d="M61.07,80.05c4.08-1.16,8.16-2.39,12,.71-1.17,3.93-2.31,7.85-.71,12a1.94,1.94,0,0,1-.76,2.19,10.85,10.85,0,0,1-10.92.27C58.26,90.07,58.18,85,61.07,80.05Z" transform="translate(0)"/><path class="cls-21" d="M128,273.94c3.62-3.24,8.05-1.56,12.13-2,1.74-.2,4.11,1.07,4.84-1.84,5.26.33,8.27,4,8.87,10.74-2.77,4-5.48,4.53-10.67,2.11-1.8-4.11-5.68-5.08-9.42-6.36A60.59,60.59,0,0,1,128,273.94Z" transform="translate(0)"/><path class="cls-22" d="M65.93,240.7l7.83-11.87a18.52,18.52,0,0,1,10,.56c2.34,2.41.7,4.68-.46,6.78-1.67,3-3.37,6.15-6.79,7.69a13.82,13.82,0,0,1-7.19.14C67.65,243.58,65.67,243.19,65.93,240.7Z" transform="translate(0)"/><path class="cls-23" d="M58.91,200.06c2.55-1.59,5.4-1.06,8.14-1a9.24,9.24,0,0,0,6-1.68c.28-.22.66-.46.85-.33,3.52,2.6,6.09,11.24,4.66,15.59-3.51,1.12-7,1.46-10.27-.63C66.17,207.21,65.41,201.37,58.91,200.06Z" transform="translate(0)"/><path class="cls-24" d="M60.66,95.18c3.76-.34,7.62.33,11.27-1.11A18.17,18.17,0,0,1,81.13,107l-12.44.14C65.7,103.37,62.39,99.8,60.66,95.18Z" transform="translate(0)"/><path class="cls-24" d="M271.56,94.91c3.22,2.11,7.52-.31,10.57,2.51-2.43,4-4.71,8.19-8.24,11.44-3.46-1.73-7.49-.1-10.95-1.83A16.81,16.81,0,0,1,271.56,94.91Z" transform="translate(0)"/><path class="cls-22" d="M271.08,230.92c3,2.77,4.42,6.7,7,9.8.21,3-2.06,3.23-4.1,3.53a19.11,19.11,0,0,1-6.22-.16c-4.72-3.19-8.35-7.05-7.89-13.32C263.61,229.33,267.36,229,271.08,230.92Z" transform="translate(0)"/><path class="cls-25" d="M195,273a2,2,0,0,0,2.32,2c4.61-.32,9.12.43,13.66,1-4.83,2.06-10.21,3.51-11,10-3.46,2.06-6.89,2.14-10.3-.13C188,280,190.14,274.87,195,273Z" transform="translate(0)"/><path class="cls-26" d="M274.84,273.92a23.15,23.15,0,0,0-8.15-1c-1.56.06-3.43.43-3.74-2,1.8-4.49,4.65-7.92,9.5-9.32,3.24,1.68,7.25,0,10.34,2.33C281.44,268.31,278,271,274.84,273.92Z" transform="translate(0)"/><path class="cls-27" d="M143.21,282.93c2.09,0,4.17,0,6.26,0s3.38-.81,3.55-3c3.52,1.2,2.23,4.57,3,7a12,12,0,0,1,.26,5.31c-2.13,5-6.73,5.72-11.14,1.77Q144.2,288.46,143.21,282.93Z" transform="translate(0)"/><path class="cls-28" d="M267.07,242.93c3.65-.81,8,2,11-2.21A21.39,21.39,0,0,1,284,250.87c1,2.27-.58,2.85-2.2,3.21a15.72,15.72,0,0,1-6.69-.06C271,251.36,267.57,248.2,267.07,242.93Z" transform="translate(0)"/><path class="cls-29" d="M274,253c2.27,0,4.54,0,6.81,0,1.55,0,3-.1,3.19-2.09,2.17,4.59,1,8.88-1.18,13.08-3.59-.81-7.84,1.89-10.85-2C272.12,258.82,272.15,255.68,274,253Z" transform="translate(0)"/><path class="cls-30" d="M189.92,284.78c3.12,2.37,6.71.62,10,1.16.56,3.87-1.72,7.25-1.91,11-3.25,2.14-6.6,1.87-10,.43C185.93,292.69,186.65,287.89,189.92,284.78Z" transform="translate(0)"/><path class="cls-28" d="M65.93,240.7c3,3.72,7.25,1.76,11,2.25-.33,5.11-3.76,8-7.62,10.53a31.18,31.18,0,0,1-6.34-.33c-1.29-.2-3.17,0-2.94-2.31C60.33,246.5,63.47,243.8,65.93,240.7Z" transform="translate(0)"/><path class="cls-31" d="M78,268.22c-1.38,2.25-3.64,1.66-5.68,1.72s-4.22-.3-6.12.94c-2.87-2.4-5.28-5.12-6.07-8.93,3.12-2.39,6.81-.92,10.2-1.55C74.83,261.13,76.44,264.67,78,268.22Z" transform="translate(0)"/><path class="cls-32" d="M271.08,230.92l-11,.05c-3.17-3.06-2.34-6.28-.42-9.57,4.81-2.71,7.89-2.54,11.38.62C270.2,225,269.35,228,271.08,230.92Z" transform="translate(0)"/><path class="cls-33" d="M71.05,261.13c-3.52,1.77-7.27.39-10.88.82A13.5,13.5,0,0,1,60,250.84c2.95,2.58,7-.2,10,2.11a1.73,1.73,0,0,1,.47,1.2,9.15,9.15,0,0,0,.22,4.44A5.63,5.63,0,0,1,71.05,261.13Z" transform="translate(0)"/><path class="cls-34" d="M68.29,212l11.13-.1c3.11,2.17,5.17,4.75,3.4,8.81-3.47,2.09-7,2.41-10.56.29A34.15,34.15,0,0,1,68.29,212Z" transform="translate(0)"/><path class="cls-35" d="M145.18,294c6.19,2.05,8.74,1.44,10-2.36,3.25,2.81,3.21,6.27,2,10-.43,2.95-2.72,2.29-4.6,2.34s-3.62,0-5.43,0C145.76,300.75,145.52,297.34,145.18,294Z" transform="translate(0)"/><path class="cls-32" d="M72.26,221c3.63,0,7.28.29,10.79-1,3.5,2.87,3.8,6.16.93,10-3.42-.26-7,.76-10.22-1.14C74.37,226,73.11,223.52,72.26,221Z" transform="translate(0)"/><path class="cls-36" d="M187.92,296.91l10.13,0a14.7,14.7,0,0,1-1.66,8.1c-3.79-.29-7.67.35-11.35-1.09C185,301.19,184.89,298.41,187.92,296.91Z" transform="translate(0)"/><path class="cls-37" d="M271.07,222a13.29,13.29,0,0,0-10.92-.05c-1.49-3-.24-4.9,2.64-6l11.14,0A13.56,13.56,0,0,1,271.07,222Z" transform="translate(0)"/><path class="cls-1" d="M262.79,215.93a11.79,11.79,0,0,0-2.64,6,13.31,13.31,0,0,0,0,9c.81,4.86,4,8.35,7,12l6.9,10c.45,3.25.24,6.34-2,9q-4.5,4.51-9,9c-4,4-8.35,4.19-13,1.19-3.31-2.28-6.93-4.23-9.88-6.9-6.66-6-13.79-7.58-21.83-3.82-5.1,2.39-10.26,4.57-15.57,6.44-3,1-5.85,2.3-7.68,5.1-3.39,3.22-5.36,7-5.06,11.83a34.11,34.11,0,0,0-2,12.13c-1.1,2.29-1.13,5-2.88,7-7.82,4.21-23,2.92-27.86-2.37l-2-10A33.06,33.06,0,0,0,153,279.92c-1.13-4.54-3.44-8.11-8-9.84-6.81-3.09-13.59-6.25-20.46-9.23a16.88,16.88,0,0,0-15.82.79,78.31,78.31,0,0,0-14.12,10.1c-6.86,5.13-11.78,1.09-16.57-3.52l-7-7.09c-.36-.74-.72-1.47-1.07-2.2A8.47,8.47,0,0,1,69.8,254L70,253q3.45-5,6.89-10C80,239,83.57,235.36,84,230a12.53,12.53,0,0,0-.93-10c-.63-3-2.22-5.49-3.63-8.1-1.17-3.36-2.25-6.74-3.54-10.05-.64-1.64-1.14-3.47-2.83-4.48-6-7.9-15.09-8-23.68-9.35-4.51-.69-8.93-1.37-11.28-6l-.24-2a106.67,106.67,0,0,1-.1-14.85l.16-2.09c1.37-4.07,4.35-6,8.49-6.56,5.06-.72,10.14-1.46,15.15-2.51,6.3-1.31,11.35-4.41,13.61-10.89q3.42-8.5,6.85-17c4-6.53,3.49-12.86-.88-19a90.3,90.3,0,0,0-9.2-12.94c-2.89-4.71-3-9.19,1.12-13.31L81,73.33c4.94-4.6,8-4.8,13.6-.84,3.93,2.78,7.78,5.65,11.73,8.39,6.25,4.34,12.87,4.91,19.73,1.6,5.08-2.45,10.32-4.46,15.6-6.43,7.71-2.88,12.09-8.4,12.47-16.8,2.06-5.94,1.6-12.42,3.91-18.3,7.14-5,23.48-4.3,28.65,1.23q1.65,8.45,3.29,16.88c.33,8.42,4.7,14,12.39,16.92,5.43,2.07,10.79,4.24,16,6.71a18.14,18.14,0,0,0,18.9-1.47c4.54-3.07,8.94-6.33,13.41-9.5,3.92-2.78,7.72-2.66,11.28.64,3,2.81,6,5.68,9,8.53,4.25,4.5,4.12,9.19.58,14A83,83,0,0,0,262.94,107c-4.63,6.5-4.62,13.17-.76,20l6.63,16c2.25,6.5,7.31,9.6,13.63,10.92,5,1.05,10.1,1.87,15.19,2.52a9.68,9.68,0,0,1,8.09,5.58,112.52,112.52,0,0,1,0,20.52c-2.23,3.54-5.73,4.71-9.63,5.27-4.59.65-9.19,1.28-13.72,2.21-5.37,1.11-9.93,3.57-12.46,8.81C266.69,204.21,265.24,210.28,262.79,215.93Z" transform="translate(0)"/><path class="cls-7" d="M37.75,165.09q0,7.42.1,14.85A31.46,31.46,0,0,1,37.75,165.09Z" transform="translate(0)"/><path class="cls-31" d="M69.8,254l.18,4.91C68.58,257.34,68.71,255.7,69.8,254Z" transform="translate(0)"/><path class="cls-38" d="M210,254.87c-25,11.08-50,11.44-75,.21.73-3.9,4-3.33,6.6-3.55,5.76-.48,11.59.68,17.29-.9a231.84,231.84,0,0,0,26.23-.1c6.37,1.54,12.86.62,19.28,1C206.67,251.67,209.58,251.26,210,254.87Z" transform="translate(0)"/><path class="cls-39" d="M134.08,89.15q37.92-17.1,75.85,0c-1.19,3.12-4,2.4-6.29,2.45-10.8.24-21.59-.17-32.38-.17-10.29,0-20.59.4-30.88.17C138.09,91.54,135.28,92.26,134.08,89.15Z" transform="translate(0)"/><path class="cls-40" d="M134.08,89.15c1.19,1.32,2.78.88,4.23.88q33.69,0,67.4,0c1.44,0,3,.44,4.22-.89,4.17,1.08,7,4.65,11,6-.18,3.37-2.87,3.06-5,3.25-3.56.32-7.18-.16-10.72.63-2.54.11-4.86-.84-7.18-1.68-9.6-3.44-19.59-4.48-29.68-4.88a16.09,16.09,0,0,0-6.4.56c-5.13,1-10.14,2.58-15.36,3.13-4.21-1-8.5-.44-12.74-.76-2.33-.18-5.14.12-5.77-3.24Z" transform="translate(0)"/><path class="cls-41" d="M159.06,251.93c-5.68,1.84-11.53.77-17.31,1-2.49.1-5-.17-6.81,2.14-7-2.52-13.13-6.52-18.92-11.09-1-3.27,1.64-3.06,3.37-3.29,3.25-.43,6.58-.12,9.83-.7,3.1.19,5.62,1.95,8.27,3.27a92.3,92.3,0,0,0,17.38,6.07C156.45,249.75,158.76,249.33,159.06,251.93Z" transform="translate(0)"/><path class="cls-41" d="M210,254.87c-1.12-2.31-3.26-1.87-5.22-1.92-6.6-.16-13.26.6-19.79-1-.13-1.6,1.14-1.89,2.22-2.13a89.49,89.49,0,0,0,26.2-10.07,4.19,4.19,0,0,1,2.88-.39,30.6,30.6,0,0,0,8.35,1.33c1.63.09,3.87-.46,4.32,2.19C223.15,247.74,217,252,210,254.87Z" transform="translate(0)"/><path class="cls-42" d="M106.05,109.05a52.18,52.18,0,0,1,13-11c4.45,1.46,9.51-.41,13.71,2.46a1.31,1.31,0,0,1,0,2.13c-4.72,3.18-8.76,7.45-14.4,9.18-2.73-.25-5.47-.2-8.19-.44C108.51,111.2,106.33,111.66,106.05,109.05Z" transform="translate(0)"/><path class="cls-43" d="M106.06,234.86C102.18,231,98.49,227,96,222c2.7-3.87,7-1.77,10.41-2.72,4.9,3.45,10.07,6.68,11.51,13.17C114.4,235.34,110,233.72,106.06,234.86Z" transform="translate(0)"/><path class="cls-43" d="M248,222c-2.28,4.56-5.83,8.16-9.14,11.94-4.3.58-8.6,1.15-12.6-1.27a1.62,1.62,0,0,1-.27-2.23c3.43-4.12,6.56-8.59,11.52-11.15C241,220.2,245.28,218.1,248,222Z" transform="translate(0)"/><path class="cls-44" d="M237.93,109.16c3.51,3.53,7.09,7,9.16,11.67.1,3-2.19,3.22-4.28,3.48a16.29,16.29,0,0,1-5.82-.25c-4.47-2.24-7.38-6.2-10.63-9.78a2.06,2.06,0,0,1-.32-2.67C229.56,108.63,234,110.29,237.93,109.16Z" transform="translate(0)"/><path class="cls-45" d="M236.1,123c3.64-.83,8,2,11-2.19A40.62,40.62,0,0,1,255,134.94c-2.52,4.53-6.54,1.94-10,2.12A25.52,25.52,0,0,1,236.1,123Z" transform="translate(0)"/><path class="cls-46" d="M248,222c-3.39-2.19-7.62.15-11-2,1.34-5.37,3.48-10.25,8.32-13.46,3.19,1.06,6.81.4,9.73,2.48A39.42,39.42,0,0,1,248,222Z" transform="translate(0)"/><path class="cls-47" d="M93,127A43.4,43.4,0,0,1,101,115c4-.42,8.06-.82,11.75,1.48a1.56,1.56,0,0,1,.2,2.22c-3.09,3.55-5,8.21-9.57,10.41C99.72,129.33,95.89,130.4,93,127Z" transform="translate(0)"/><path class="cls-48" d="M106.06,234.86c.38-2.42,2.29-1.91,3.8-1.86a23.56,23.56,0,0,0,8.1-1,22.14,22.14,0,0,1,12,9c-3.31,1.22-6.75,1-10.17,1-1.58,0-3.45-.42-3.78,2C112.66,241,108.55,238.81,106.06,234.86Z" transform="translate(0)"/><path class="cls-49" d="M107,220c-3.4,2.17-7.62-.18-11,2a39.17,39.17,0,0,1-7-13c3.15-2.25,6.84-1.28,10.29-1.73A19.94,19.94,0,0,1,107,220Z" transform="translate(0)"/><path class="cls-48" d="M226,232c4.08,1.91,8.76-.07,12.83,2-2.51,3.87-6.39,6.22-10,8.93-2-1.71-4.44-.72-6.67-.85s-4.66,0-6.28-2.13A15.1,15.1,0,0,1,226,232Z" transform="translate(0)"/><path class="cls-50" d="M255,209c-3.48-.1-7.1.5-10.08-2.05-.23-5.16,1-9.76,5.08-13.27,3.11,1.49,6.92,0,9.86,2.31C258.66,200.47,257.73,205.06,255,209Z" transform="translate(0)"/><path class="cls-50" d="M99.88,208c-3.54,1.41-7.26.92-10.92,1-2.65-3.58-3.18-8-4.75-12,2.86-2.23,7-.54,9.74-3.22C98.43,197.46,99.26,202.68,99.88,208Z" transform="translate(0)"/><path class="cls-40" d="M133.09,101.07a40.55,40.55,0,0,0-10.76-1c-1.52.11-3.08.09-3.31-2a36.67,36.67,0,0,1,9-5.86c1.73,1.93,4,1.89,6.34,1.91,4.24,0,8.53-.5,12.65,1A18.35,18.35,0,0,1,133.09,101.07Z" transform="translate(0)"/><path class="cls-51" d="M85,145.87c.71-3.87,1.68-7.66,4-11,3.59-.41,7.18-.76,10.68.54,1,5.32-2,9.26-4.5,13.41-2.78,1.74-5.65.64-8.44.13C85.15,148.72,84,147.75,85,145.87Z" transform="translate(0)"/><path class="cls-52" d="M237.93,109.16c-.39,2.43-2.32,1.89-3.83,1.84a24,24,0,0,0-8.13,1c-5.05-1.29-9.44-5.26-9.75-8.82,4.37-2.86,9.1-1.21,13.71-1.08A20.79,20.79,0,0,1,237.93,109.16Z" transform="translate(0)"/><path class="cls-53" d="M244.14,136c3.61-.52,7.44,1.19,10.88-1.07,2.34,3.29,3.27,7.09,4,11-2.25,4.34-6.08,2.07-9.33,2.23C245.3,145.27,244.29,140.84,244.14,136Z" transform="translate(0)"/><path class="cls-54" d="M229.93,102.13c-2.65,1.85-5.63.64-8.44.86-1.93.15-3.87,0-5.61,1.09a12.64,12.64,0,0,1-11-6c3.46-1.85,7.19-.76,10.8-1,2-.14,4.11.4,5.24-1.92C224.2,97.13,227.6,98.93,229.93,102.13Z" transform="translate(0)"/><path class="cls-55" d="M259.89,196c-3.24-1.09-7.4,2.32-10-2.06-1.74-3.59-1.08-6.7,1.84-9.37,3.44.1,7-.78,10.16,1.43A30.33,30.33,0,0,1,259.89,196Z" transform="translate(0)"/><path class="cls-56" d="M94.07,193.93c-.23,2.92-2.28,3.11-4.54,3.06-1.77,0-3.55,0-5.32,0q-1-5-2.09-10a10,10,0,0,1,11.16.32C94.77,189.37,95.89,191.48,94.07,193.93Z" transform="translate(0)"/><path class="cls-57" d="M81.16,180l-.1-11c3.26-2.14,6.61-1.87,10-.38,1.8,2.17,1.41,4.75,1.36,7.27C90.75,180.5,87.77,181.58,81.16,180Z" transform="translate(0)"/><path class="cls-58" d="M99.86,136c-3.61-.53-7.46,1.21-10.89-1.09A21.55,21.55,0,0,1,93,127c3.62,1.4,7.41,1,11.16,1.05C104.82,131.83,102.76,134.15,99.86,136Z" transform="translate(0)"/><path class="cls-59" d="M248.94,147c3.35-.52,6.94,1.16,10.1-1.12a13.41,13.41,0,0,1,2,8c-2.43,4.22-6.37,2.67-9.93,2.61C248.56,153.77,247.31,150.72,248.94,147Z" transform="translate(0)"/><path class="cls-60" d="M112.81,117c-3.8-1.43-8.08-.08-11.8-2l5-5.94c2.35,2,5.12.71,7.68.94,1.82.16,3.66,0,5.3,1C118.79,114.94,116.25,116.44,112.81,117Z" transform="translate(0)"/><path class="cls-61" d="M81.16,180c2.2-.57,4.37-1.27,6.7-1s3.37-.76,3.22-3.07c3.9,3.52,3,7.78,1.85,12.07-3.46-1.89-7.21-.64-10.81-1C81.46,184.7,80.75,182.42,81.16,180Z" transform="translate(0)"/><path class="cls-62" d="M262.93,169c0,3,0,6,0,9-5.28,2.5-8.21,2-11-1.68-.5-2.62-.72-5.2.89-7.57C256.19,167,259.59,166.84,262.93,169Z" transform="translate(0)"/><path class="cls-63" d="M252.92,175.91c.52,3,2.89,1.93,4.64,2.06s3.55,0,5.33,0a18.88,18.88,0,0,1-1,8c-3.32-.48-6.86,1.11-10-1.06C250.22,181.7,249.11,178.54,252.92,175.91Z" transform="translate(0)"/><path class="cls-64" d="M85,145.87c2.7,3.59,6.41,2.46,9.94,2.14,1.58,3.55.29,6.33-2.36,8.75a12.78,12.78,0,0,1-7.24.43C83,156.73,81.88,155.42,83,153A11.64,11.64,0,0,1,85,145.87Z" transform="translate(0)"/><path class="cls-65" d="M262.93,169h-10c-2.85-1.85-2.49-4.34-1.39-7,3.08-2.38,7.41-.56,10.46-3.09C263.78,162.15,262.67,165.64,262.93,169Z" transform="translate(0)"/><path class="cls-66" d="M83,153c-.16,2.27.91,3.16,3.15,3.05s4.48,0,6.72,0c1.88,2.47.6,4.59-.74,6.71-1.69,1.61-3.81,1.74-6,1.68-3.63-.08-5.74-1.38-4.19-5.46C82.23,156.93,81.44,154.75,83,153Z" transform="translate(0)"/><path class="cls-67" d="M262,158.94c.13,2.24-.88,3.21-3.16,3.09s-4.5,0-6.76,0c-1.81-1.75-2.75-3.65-1-6,3.23-1.14,6.89-.22,10-2.1C262.43,155.38,261.85,157.22,262,158.94Z" transform="translate(0)"/><path class="cls-68" d="M82,158.94c.59,4.56,3.21,5.37,9.91,3.06,2,2.61,2,5-.84,7h-10C81.33,165.64,80.21,162.15,82,158.94Z" transform="translate(0)"/><path class="cls-1" d="M91.09,169c1.16-2.22.92-4.62.84-7,.33-2,.66-4,1-6l2-8,4.94-12,4.26-8q4.35-5.52,8.69-11c2.19-1.87,4.65-3.46,6.21-6l14.07-10,14-6,15-3.14c1.93-1,4.16.3,6.06-.83a106.79,106.79,0,0,1,36.78,7l11,6L226,112l10.13,11,8,13,4.8,11c.71,3,1.43,6,2.14,9q.49,3,1,6c-.08,2.38-.32,4.78.85,7q0,3.47,0,6.91c-1.71,2.86-.66,6-1,9a24.7,24.7,0,0,0-2,9l-5,13-8,13-11,12L216,239.88a113.62,113.62,0,0,1-31,12.05,153.19,153.19,0,0,1-25.88,0c-10.1-2.58-20-5.71-29.09-11l-12-9L107,220l-7.13-12q-2.91-7-5.81-14c.26-2.1-.65-4-1.14-5.94-1-4-.29-8.19-1.85-12.07C91.08,173.61,91.09,171.31,91.09,169Z" transform="translate(0)"/><path class="cls-40" d="M168.12,91.09c-1.86,1.42-4,.76-6.06.83C163.9,90.3,166.1,91.32,168.12,91.09Z" transform="translate(0)"/><path class="cls-69" d="M150.91,170a90.42,90.42,0,0,1,2.19,16.71c.38,2.7,1.68,5.73-2.66,6.57-4.05.78-6.08-.35-7.29-4.26-5.4-2.05-11-.8-16.5-.78-3.19,0-.23,3.42-1.67,4.75-5,2.38-7.59,2.09-10-1.13.12-6.05,1.33-12,2.28-17.9,3.71-3.31,8-3.14,10.87.43,2.6,3.17,8.88,3.3,11.66.23.19-2-1.33-4.11.5-5.94C143.88,168.57,147.58,167.8,150.91,170Z" transform="translate(0)"/><path class="cls-70" d="M209,169.16c-1.21,7.91-7,13.13-15.25,13.62a58,58,0,0,1-9.95,0c-4.94-.58-7.53.87-6.8,6.23A8.79,8.79,0,0,1,167,189V171c3-2.2,6.3-1.39,9.57-1.11,4.43,1.08,9,.51,13.43.72,4,.18,6.79-1.21,7.68-5.42a4.09,4.09,0,0,1,1.81-2.89,7.56,7.56,0,0,1,2.87-.73C208.85,161.05,210,162.35,209,169.16Z" transform="translate(0)"/><path class="cls-71" d="M167,156c-.08-4.32,0-8.64-.28-12.94-.15-2.81,1.18-3.3,3.58-3.26,6.65.11,13.3,0,19.95,0,11.69,0,15.13,2.55,18.85,13.88.83,6.65-1.1,7.89-9.44,6.07a2.14,2.14,0,0,1-.41-.25c-2.23-1.77-1.25-5.92-4.56-6.68-4.38-1-8.89-.38-13.34-.35-2.74,0-2.95,2.87-4.6,4.1C173.38,157.8,170.09,158.14,167,156Z" transform="translate(0)"/><path class="cls-72" d="M119.94,155.72c0-4.36.09-8.78,3.19-12.25,4.9-5.45,11.44-4,17.35-3.12,4.89.72,7.38,4.74,7.87,9.73.22,2.31.46,4.62.69,6.93-2.86,2.21-6.08,1.41-9.23,1.12-1.85-.42-2.55-1.85-3.08-3.46-.38-1.16-1-2.12-2.43-2s-1.89,1.15-2.31,2.26c-.63,1.67-.73,3.56-2.07,4.94-2.11,1.67-4.54,1.73-7,1.23C120,160.52,118.93,158.65,119.94,155.72Z" transform="translate(0)"/><path class="cls-73" d="M230.86,156v23a8.71,8.71,0,0,1-10.13-.06c-.51-6.1.1-12.22-.29-18.3s1.89-6.13,6.83-6.06A5,5,0,0,1,230.86,156Z" transform="translate(0)"/><path class="cls-74" d="M230.86,156c-9.88,0-9.89,0-9.88,10,0,4.32.07,8.64.11,13,1.93,3.17,1.4,6.52.71,9.89a1.93,1.93,0,0,1-1.23,1.09c-.12-15.74-.21-31.49-.36-47.24,0-2.12.81-2.77,2.91-2.94,7.93-.65,7.94-.73,7.92,7.28C231,150.05,230.92,153,230.86,156Z" transform="translate(0)"/><path class="cls-11" d="M119.94,155.72c1,4.75,3.44,5.57,9.88,3.28,2.33,3.3.45,6.76.19,10.07-.49,6.25-.14,6.83,6.25,6.52,1.66-.08,3.28-.5,4.94-.59,1.59,2.36.21,2.94-1.85,3-3.16.05-6.32,0-9.48,0-1,0-2.25.05-2.52-1.12-1.65-7.14-6.37-3.27-10.12-2.9C117.94,167.85,118.36,161.7,119.94,155.72Z" transform="translate(0)"/><path class="cls-75" d="M167,156H177a17,17,0,0,1,0,15H167Z" transform="translate(0)"/><path class="cls-76" d="M220.81,190c.09-3.67.19-7.33.28-11h9.76v15c-1.58,1.52-3.57,1.49-5.54,1.45C221.71,195.38,219.55,194.08,220.81,190Z" transform="translate(0)"/><path class="cls-77" d="M167,189H177c.08,4,.05,8,.25,11.93.24,4.8-3.32,3-5.53,3.15s-5.32,1.2-5-3.16C167,197,166.89,193,167,189Z" transform="translate(0)"/><path class="cls-78" d="M138.62,157.13,149,157a57,57,0,0,1,1.87,13c-3.52-.41-7.21,1-10.58-1A11.42,11.42,0,0,1,138.62,157.13Z" transform="translate(0)"/><path class="cls-79" d="M143.15,189c1.46,4,4.88,3.16,7.8,2.84,3.34-.36,1.55-3.36,2.15-5.15,1.6,5,1.51,10.38,2.5,15.53.08.44,0,1.25-.17,1.33-2.85,1.17-5.84.42-8.77.51-2,.07-1.73-1.63-1.9-2.84C144.18,197.17,143.68,193.09,143.15,189Z" transform="translate(0)"/><path class="cls-80" d="M115,191.86c3.13,2.32,6.71.61,10,1.13-.28,2.62-.73,5.24-.79,7.87s-1.13,3.29-3.63,3.35c-7.48.2-7.49.32-6.61-7.05C114.16,195.37,113.89,193.48,115,191.86Z" transform="translate(0)"/><path class="cls-81" d="M220.81,190c-.08,2.78.87,4.4,4.06,4a51.83,51.83,0,0,1,6,0c.06,1.15.17,2.3.18,3.45.06,6.68-2.14,8.27-8.86,6.72-1.8-.42-1.95-1.46-1.92-2.84.09-3.78.21-7.56.32-11.35Z" transform="translate(0)"/><path class="cls-82" d="M199.1,159a30.87,30.87,0,0,1,4.41,0c4.26.66,6.15-1,5.56-5.31a36.65,36.65,0,0,1,0,15.43c-.37-7.22,1.25-6-9.93-6.15A2.57,2.57,0,0,1,199.1,159Z" transform="translate(0)"/><path class="cls-83" d="M138.62,157.13,140.33,169l.87,6c-.18,3.26-2.7,2.22-4.43,2.25-9.33.2-9.3.17-8-8.94.44-3.09.71-6.2,1-9.31a34,34,0,0,0,.75-4.32c.13-2.9,1.12-4.3,4.41-4.13s3,2.18,3.07,4.32A10.86,10.86,0,0,0,138.62,157.13Z" transform="translate(0)"/><path class="cls-83" d="M199.1,159v4c-.54,8.07-1.5,9.16-9.51,8.92-4.18-.12-8.52,1.21-12.56-.93V156c-.63-4.81,1.92-5.88,6.1-5.42a64,64,0,0,0,6.93,0C197.64,150.66,198.52,151.47,199.1,159Z" transform="translate(0)"/></svg>