<?xml version="1.0" encoding="utf-8"?>
<!-- Generator: Adobe Illustrator 24.0.3, SVG Export Plug-In . SVG Version: 6.00 Build 0)  -->
<svg version="1.1" id="Layer_1" xmlns:sketch="http://www.bohemiancoding.com/sketch/ns"
	 xmlns="http://www.w3.org/2000/svg" xmlns:xlink="http://www.w3.org/1999/xlink" x="0px" y="0px" viewBox="0 0 143 124"
	 style="enable-background:new 0 0 143 124;" xml:space="preserve">
<style type="text/css">
	.st0{fill-rule:evenodd;clip-rule:evenodd;fill:#FFFFFF;}
	.st1{fill-rule:evenodd;clip-rule:evenodd;fill:#010101;}
	.st2{fill-rule:evenodd;clip-rule:evenodd;}
</style>
<title>logo full</title>
<description>Created with Sketch.</description>
<g id="Page-1" sketch:type="MSPage">
	<g id="logo" sketch:type="MSLayerGroup">
		<path id="Shape" sketch:type="MSShapeGroup" class="st0" d="M0.6,43.1h43v43h-43V43.1L0.6,43.1z"/>
		<path id="Shape_1_" sketch:type="MSShapeGroup" class="st1" d="M16.8,44.3c5.4-1.4,11.4-0.6,16.2,2.4c6,3.6,10,10.4,10,17.4
			c0.2,7.1-3.5,14.1-9.4,17.9c-6.6,4.4-15.7,4.6-22.5,0.4C4.3,78.4,0.3,70.1,1.3,62.2C2.2,53.8,8.7,46.4,16.8,44.3L16.8,44.3z"/>
		<path id="Shape_2_" sketch:type="MSShapeGroup" class="st0" d="M16,47.8c10.2-4.1,22.8,3.5,23.9,14.5c1.7,9.9-6.5,19.9-16.6,20.2
			c-9.5,0.9-18.7-7.1-19-16.7C3.6,58,8.7,50.3,16,47.8L16,47.8z"/>
		<path id="Shape_3_" sketch:type="MSShapeGroup" class="st1" d="M17,63.5c4.6-3.8,9.1-7.6,13.8-11.3c-2.5,3.8-5,7.5-7.5,11.3
			C21.2,63.6,19.1,63.6,17,63.5L17,63.5z"/>
		<path id="Shape_4_" sketch:type="MSShapeGroup" class="st1" d="M20.9,65.6c2.1,0,4.2,0,6.3,0c-4.6,3.7-9.1,7.6-13.8,11.3
			C15.9,73.1,18.4,69.4,20.9,65.6L20.9,65.6z"/>
	</g>
	<path id="socket.io" sketch:type="MSShapeGroup" class="st2" d="M60.5,71.5c0.9,0.5,2.1,0.8,3.6,0.8c3.1,0,4.8-1.5,4.8-3.6
		c0-1.7-1-2.8-3.1-3.6c-1.5-0.5-2-0.9-2-1.6c0-0.7,0.6-1.2,1.6-1.2c1,0,2,0.4,2.5,0.7l0.6-2.1c-0.7-0.4-1.8-0.7-3.1-0.7
		c-2.7,0-4.4,1.6-4.4,3.7c0,1.4,0.9,2.6,3.2,3.4c1.4,0.5,1.9,0.9,1.9,1.7c0,0.8-0.6,1.3-1.9,1.3c-1.1,0-2.3-0.4-3-0.8L60.5,71.5z
		 M75.5,60.1c-3.5,0-6,2.4-6,6.2c0,3.7,2.5,6,5.9,6c3,0,6-1.9,6-6.2C81.3,62.6,79,60.1,75.5,60.1z M75.5,62.3c2,0,2.8,2.1,2.8,3.9
		c0,2.4-1.2,4-2.9,4c-1.8,0-2.9-1.7-2.9-4C72.5,64.3,73.4,62.3,75.5,62.3z M90.9,69.6c-0.6,0.2-1.3,0.5-2.3,0.5
		c-2,0-3.6-1.4-3.6-3.8c0-2.1,1.3-3.8,3.6-3.8c1.1,0,1.8,0.2,2.2,0.5l0.5-2.2c-0.7-0.3-1.8-0.6-2.9-0.6c-4.1,0-6.5,2.7-6.5,6.2
		c0,3.6,2.4,6,6,6c1.5,0,2.7-0.3,3.3-0.6L90.9,69.6z M95.5,55.1h-3v17h3v-4l1-1.2l3.4,5.2h3.6l-4.9-6.9l4.3-4.8h-3.6l-2.8,3.8
		c-0.3,0.4-0.6,0.9-0.9,1.4h0V55.1z M113.5,67.1c0-0.3,0.1-0.7,0.1-1.2c0-2.6-1.2-5.7-5-5.7c-3.7,0-5.7,3-5.7,6.3
		c0,3.6,2.2,5.9,6,5.9c1.7,0,3.1-0.3,4.1-0.7l-0.4-2c-0.9,0.3-1.9,0.5-3.2,0.5c-1.9,0-3.5-0.9-3.6-3H113.5z M105.7,65
		c0.1-1.2,0.9-2.9,2.7-2.9c2,0,2.4,1.8,2.4,2.9H105.7z M115.5,57.8v2.6h-1.7v2.2h1.7v5.5c0,1.5,0.3,2.6,0.9,3.3c0.6,0.6,1.5,1,2.5,1
		c0.9,0,1.7-0.1,2.1-0.3l0-2.3c-0.3,0.1-0.6,0.1-1.2,0.1c-1.1,0-1.5-0.7-1.5-2.2v-5.2h2.8v-2.2h-2.8v-3.3L115.5,57.8z M123.7,72.4
		c1.1,0,1.8-0.8,1.8-1.9c0-1.1-0.7-1.9-1.8-1.9c-1.1,0-1.8,0.8-1.8,1.9C121.9,71.5,122.6,72.4,123.7,72.4z M129.9,72.1V60.4h-3v11.7
		H129.9z M128.4,55.5c-1,0-1.7,0.7-1.7,1.6c0,0.9,0.6,1.6,1.6,1.6c1,0,1.7-0.7,1.7-1.6C130,56.2,129.4,55.5,128.4,55.5z M137.4,60.1
		c-3.5,0-6,2.4-6,6.2c0,3.7,2.5,6,5.9,6c3,0,6-1.9,6-6.2C143.2,62.6,140.8,60.1,137.4,60.1z M137.3,62.3c2,0,2.8,2.1,2.8,3.9
		c0,2.4-1.2,4-2.9,4c-1.8,0-2.9-1.7-2.9-4C134.4,64.3,135.2,62.3,137.3,62.3z"/>
</g>
</svg>
